# xmcd
#
# Track frame offsets:
# 150
# 14417
# 30810
# 44657
# 64017
# 82157
# 96370
# 117312
# 136230
# 150795
# 162065
# 174747
# 193420
# 209835
#
# Disc length: 3011 seconds
#
#
# Revision: 1
# Processed by: cddbd v1.4PL0 Copyright (c) Steve Scherf et al.
# Submitted via: FreeRIP 2.35 
#
DISCID=bf0bc10e
DTITLE=Rionegro e Solimões - Rionegro e Solimões
DYEAR=1900
DGENRE=Sertanejo
TTITLE0=De São Paulo a Belém
TTITLE1=A Gente se Entrega
TTITLE2=Peão Apaixonado
TTITLE3=Frio da Madrugada
TTITLE4=Boiadeiro e Violeiro
TTITLE5=No Pique do Rodeio
TTITLE6=Só Lembranças
TTITLE7=Laço da Paixão
TTITLE8=Trem Bão
TTITLE9=Rei da Festa
TTITLE10=Bate o Pé
TTITLE11=É por Você
TTITLE12=Casa Cheia
TTITLE13=Ô de Casa, ô de Fora
EXTD=Submited by Leonardo de Sousa Leite\nleonardodesousa@ieg.com.br\nleo3dnow@hotmail.com
EXTT0=
EXTT1=
EXTT2=
EXTT3=
EXTT4=
EXTT5=
EXTT6=
EXTT7=
EXTT8=
EXTT9=
EXTT10=
EXTT11=
EXTT12=
EXTT13=
PLAYORDER=
